<svg style="vertical-align: -3.016ex;" xmlns="http://www.w3.org/2000/svg" width="35.365ex" height="6.936ex" role="img" focusable="false" viewBox="0 -1733 15631.1 3065.8"><g stroke="#1d1d1f" fill="#1d1d1f" stroke-width="0" transform="scale(1,-1)"><g><g><path data-c="1D439" d="M199 656C199 646 210 641 231 641C271 641 291 637 291 628C291 625 289 618 286 605L156 82C150 60 140 47 126 42C119 40 101 39 70 39C48 39 38 37 38 16C38 5 44 0 57 0L187 3L335 0C351 0 359 8 359 23C359 40 348 39 322 39C278 39 253 41 247 46C244 47 243 51 243 56L307 321L400 321C446 321 478 319 478 281C478 268 476 252 471 233C470 230 469 226 468 222C468 211 473 206 484 206C489 207 496 214 503 229L557 444C559 452 560 458 560 461C557 470 551 475 544 475C536 475 530 467 526 452C516 414 502 390 486 378C470 366 442 360 402 360L317 360L379 606C387 640 387 641 429 641L559 641C656 641 700 626 700 537C700 517 699 499 697 484C696 473 695 467 695 466C695 455 700 450 710 450C720 450 726 459 728 478L748 649C751 677 744 680 717 680L233 680C210 680 199 679 199 656Z"/></g><g transform="translate(751,0)"><path data-c="28" d="M318-248C327-248 332-243 332-234C332-231 330-227 327-223C275-183 233-117 202-26C175 53 161 131 161 208L161 292C161 369 175 447 202 526C233 617 275 683 327 723C330 726 332 730 332 734C332 743 327 748 318 748C317 748 314 747 311 745C251 699 201 631 160 540C121 453 101 371 101 292L101 208C101 129 121 47 160-40C201-131 251-199 311-245C314-247 317-248 318-248Z"/></g><g transform="translate(1140,0)"><path data-c="1D462" d="M543 144C543 153 538 158 527 158C518 158 513 151 510 137C505 118 500 99 493 80C480 39 462 18 440 18C422 18 413 32 413 60C413 77 420 111 433 161L460 267C469 303 477 328 483 359L489 386C491 393 492 398 492 401C492 421 481 431 459 431C437 431 423 419 417 394L343 98C342 95 338 88 330 76C314 50 275 18 235 18C197 18 178 44 178 95C178 136 196 202 231 294C242 324 248 345 248 357C248 407 213 442 163 442C118 442 83 417 58 367C39 328 29 301 29 287C29 278 34 273 45 273C58 273 60 279 64 293C87 373 119 413 160 413C174 413 181 403 181 384C181 369 175 348 164 319C126 218 107 148 107 111C107 34 155-11 232-11C275-11 314 9 347 50C361 9 391-11 437-11C506-11 527 70 543 144Z"/></g><g transform="translate(1712,0)"><path data-c="2C" d="M139 106C107 106 86 82 86 50C86 20 109-5 139-5C153-5 165-1 174 8L175 0C175-63 154-117 112-160C105-168 101-174 101-178C101-188 105-193 114-193C123-193 135-181 152-158C186-110 203-57 203 0C203 53 185 106 139 106Z"/></g><g transform="translate(2156.7,0)"><path data-c="1D463" d="M369 391C369 383 378 370 394 350C410 330 418 307 418 281C418 252 404 203 375 134C354 86 306 18 247 18C201 18 178 45 178 100C178 139 197 208 235 307C243 328 247 345 247 357C247 407 213 442 163 442C119 442 84 417 59 367C39 326 29 300 29 287C29 278 34 273 45 273C58 273 60 279 64 293C87 373 119 413 160 413C173 413 180 404 180 385C180 369 175 347 164 318C127 219 108 152 108 115C108 64 125 29 159 10C186-4 214-11 243-11C332-11 394 85 420 162C452 256 468 325 468 369C468 418 452 442 421 442C396 442 369 416 369 391Z"/></g><g transform="translate(2641.7,0)"><path data-c="29" d="M78-245C138-199 188-131 229-40C268 47 288 129 288 208L288 292C288 371 268 453 229 540C188 631 138 699 78 745C75 747 72 748 71 748C62 748 57 743 57 734C57 730 59 726 62 723C114 683 156 617 187 526C214 447 228 369 228 292L228 208C228 131 214 53 187-26C156-117 114-183 62-223C59-227 57-231 57-234C57-243 62-248 71-248C72-248 75-247 78-245Z"/></g><g transform="translate(3308.4,0)"><path data-c="3D" d="M698 367L80 367C64 367 56 359 56 344C56 329 64 321 80 321L698 321C714 321 722 329 722 344C722 356 711 367 698 367M698 179L80 179C64 179 56 171 56 156C56 141 64 133 80 133L698 133C714 133 722 141 722 156C722 169 711 179 698 179Z"/></g><g transform="translate(4364.2,0)"><g transform="translate(99,0)"><path data-c="2211" d="M1265-450L1389-124L1355-124C1336-174 1304-216 1258-250C1145-334 1000-356 791-356L200-356L700 232C707 239 710 246 710 251L244 894L781 894C970 894 1127 870 1230 804C1290 766 1332 719 1356 663L1389 663L1265 950L88 950C70 950 60 947 57 941C56 938 56 926 56 905L581 187L68-415C61-423 57-430 57-435C57-445 67-450 88-450Z"/></g><g transform="translate(166.9,-1087.9) scale(0.707)" data-mjx-texclass="ORD"><g><path data-c="1D465" d="M527 373C527 419 482 442 432 442C389 442 355 419 329 373C308 419 273 442 222 442C173 442 133 419 101 374C74 335 60 306 60 287C60 278 65 273 75 273C84 273 90 278 92 287C111 345 153 413 220 413C253 413 269 392 269 351C269 330 251 252 216 118C199 51 169 18 126 18C112 18 99 21 88 26C114 36 127 54 127 80C127 106 114 119 87 119C54 119 29 91 29 58C29 12 76-11 125-11C167-11 201 12 228 58C247 12 283-11 335-11C383-11 423 12 455 57C482 96 496 125 496 144C496 153 491 158 481 158C472 158 467 153 464 144C447 87 402 18 337 18C304 18 287 38 287 79C287 92 292 120 303 165L337 300C356 375 387 413 431 413C445 413 458 410 469 405C442 396 429 378 429 351C429 325 443 312 470 312C502 312 527 341 527 373Z"/></g><g transform="translate(572,0)"><path data-c="3D" d="M698 367L80 367C64 367 56 359 56 344C56 329 64 321 80 321L698 321C714 321 722 329 722 344C722 356 711 367 698 367M698 179L80 179C64 179 56 171 56 156C56 141 64 133 80 133L698 133C714 133 722 141 722 156C722 169 711 179 698 179Z"/></g><g transform="translate(1350,0)"><path data-c="30" d="M249-22C390-22 460 92 460 320C460 473 428 575 365 625C330 652 291 666 250 666C109 666 39 551 39 320C39 136 88-22 249-22M361 524C368 489 371 425 371 332C371 240 367 172 360 128C347 48 310 8 249 8C226 8 203 17 182 34C155 57 139 104 132 176C129 201 128 253 128 332C128 419 131 480 136 513C145 568 163 603 191 618C213 630 232 636 249 636C314 636 350 583 361 524Z"/></g></g><g transform="translate(0,1150) scale(0.707)" data-mjx-texclass="ORD"><g><path data-c="1D440" d="M594 16C594 5 600 0 613 0L736 3C759 4 840 0 859 0C874 0 882 8 882 24C882 34 872 39 851 39C810 39 790 43 790 52C790 55 792 62 795 75L927 602C932 623 942 636 955 641C961 643 979 644 1008 644C1033 644 1044 645 1044 668C1044 678 1034 683 1013 683L882 683C853 683 853 681 840 662L484 108L408 657C404 682 402 683 373 683L237 683C215 683 204 682 204 660C204 649 215 644 236 644C256 644 297 647 297 631C297 629 296 623 293 613L167 110C158 72 135 49 100 42C75 39 42 43 42 16C42 5 48 0 60 0C78 0 141 3 159 3C178 3 242 0 261 0C276 0 283 8 283 24C283 33 276 38 261 39C219 39 198 52 198 78C198 82 199 89 202 100L332 621L415 26C418 9 424 0 434 0C442 0 450 7 459 20L848 627L712 82C706 60 696 47 681 42C675 40 656 39 625 39C604 39 594 37 594 16Z"/></g><g transform="translate(1044,0)"><path data-c="2212" d="M698 270L80 270C64 270 56 263 56 250C56 237 64 230 80 230L698 230C714 230 722 237 722 250C722 262 710 270 698 270Z"/></g><g transform="translate(1822,0)"><path data-c="31" d="M269 666C228 624 168 603 89 603L89 564C141 564 184 572 217 588L217 82C217 64 213 52 204 47C195 42 170 39 130 39L95 39L95 0C120 2 174 3 257 3C340 3 394 2 419 0L419 39L384 39C343 39 318 42 310 47C302 52 297 64 297 82L297 636C297 660 295 666 269 666Z"/></g></g></g><g transform="translate(6172.8,0)"><g transform="translate(41.3,0)"><path data-c="2211" d="M1265-450L1389-124L1355-124C1336-174 1304-216 1258-250C1145-334 1000-356 791-356L200-356L700 232C707 239 710 246 710 251L244 894L781 894C970 894 1127 870 1230 804C1290 766 1332 719 1356 663L1389 663L1265 950L88 950C70 950 60 947 57 941C56 938 56 926 56 905L581 187L68-415C61-423 57-430 57-435C57-445 67-450 88-450Z"/></g><g transform="translate(138.2,-1087.9) scale(0.707)" data-mjx-texclass="ORD"><g><path data-c="1D466" d="M163 442C118 442 83 417 58 367C39 328 29 301 29 286C29 277 34 272 45 272C59 272 60 278 64 293C87 372 119 412 160 412C173 412 180 403 180 385C180 369 175 346 164 317C126 214 107 145 107 108C107 32 154-13 231-13C264-13 295-1 323 23C288-109 233-175 158-175C124-175 101-164 89-142C129-140 149-121 149-85C149-60 136-47 109-47C72-47 50-78 50-115C50-170 100-205 158-205C273-205 367-99 392-1L486 377C489 388 490 396 490 401C490 421 479 431 458 431C442 431 429 423 420 408C414 387 409 369 406 354L342 97C332 61 279 16 234 16C196 16 177 41 177 92C177 134 194 198 227 284C240 319 247 343 247 357C247 406 212 442 163 442Z"/></g><g transform="translate(490,0)"><path data-c="3D" d="M698 367L80 367C64 367 56 359 56 344C56 329 64 321 80 321L698 321C714 321 722 329 722 344C722 356 711 367 698 367M698 179L80 179C64 179 56 171 56 156C56 141 64 133 80 133L698 133C714 133 722 141 722 156C722 169 711 179 698 179Z"/></g><g transform="translate(1268,0)"><path data-c="30" d="M249-22C390-22 460 92 460 320C460 473 428 575 365 625C330 652 291 666 250 666C109 666 39 551 39 320C39 136 88-22 249-22M361 524C368 489 371 425 371 332C371 240 367 172 360 128C347 48 310 8 249 8C226 8 203 17 182 34C155 57 139 104 132 176C129 201 128 253 128 332C128 419 131 480 136 513C145 568 163 603 191 618C213 630 232 636 249 636C314 636 350 583 361 524Z"/></g></g><g transform="translate(0,1150) scale(0.707)" data-mjx-texclass="ORD"><g><path data-c="1D441" d="M864 683C845 683 783 680 764 680C745 680 682 683 663 683C648 683 641 675 641 659C641 650 648 645 663 644C705 644 726 631 726 605C726 599 725 592 724 585L616 157L401 662C393 681 391 683 366 683L233 683C209 683 200 681 200 659C200 649 211 644 232 644C274 644 295 643 296 640L163 110C154 71 131 49 95 42C69 39 39 43 39 15C39 5 45 0 56 0C74 0 136 3 155 3C174 3 238 0 257 0C272 0 279 8 279 24C279 33 271 38 255 39C214 40 194 53 194 78C194 83 195 90 197 100L326 611L576 21C582 7 590 0 599 0C608 0 614 8 618 24L757 574C770 625 798 643 860 644C874 645 881 653 881 669C878 678 877 683 864 683Z"/></g><g transform="translate(881,0)"><path data-c="2212" d="M698 270L80 270C64 270 56 263 56 250C56 237 64 230 80 230L698 230C714 230 722 237 722 250C722 262 710 270 698 270Z"/></g><g transform="translate(1659,0)"><path data-c="31" d="M269 666C228 624 168 603 89 603L89 564C141 564 184 572 217 588L217 82C217 64 213 52 204 47C195 42 170 39 130 39L95 39L95 0C120 2 174 3 257 3C340 3 394 2 419 0L419 39L384 39C343 39 318 42 310 47C302 52 297 64 297 82L297 636C297 660 295 666 269 666Z"/></g></g></g><g transform="translate(7866.1,0)"><path data-c="1D453" d="M552 633C552 677 509 705 462 705C400 705 357 665 334 586C329 568 318 517 302 433L237 433C215 433 204 432 204 411C204 400 214 395 235 395L295 395L222 8C211-49 201-91 192-119C180-156 163-175 141-175C126-175 114-171 103-164C135-159 151-140 151-108C151-82 138-69 111-69C77-69 53-99 53-133C53-177 94-205 141-205C166-205 189-195 208-174C240-141 265-94 283-31C294 8 304 46 311 84L369 395L451 395C474 395 484 396 484 419C484 428 474 433 454 433L377 433C383 474 411 625 420 644C430 665 444 675 462 675C477 675 490 671 501 664C470 657 454 639 454 608C454 582 467 569 494 569C528 569 552 599 552 633Z"/></g><g transform="translate(8418.1,0)"><path data-c="28" d="M318-248C327-248 332-243 332-234C332-231 330-227 327-223C275-183 233-117 202-26C175 53 161 131 161 208L161 292C161 369 175 447 202 526C233 617 275 683 327 723C330 726 332 730 332 734C332 743 327 748 318 748C317 748 314 747 311 745C251 699 201 631 160 540C121 453 101 371 101 292L101 208C101 129 121 47 160-40C201-131 251-199 311-245C314-247 317-248 318-248Z"/></g><g transform="translate(8807.1,0)"><path data-c="1D465" d="M527 373C527 419 482 442 432 442C389 442 355 419 329 373C308 419 273 442 222 442C173 442 133 419 101 374C74 335 60 306 60 287C60 278 65 273 75 273C84 273 90 278 92 287C111 345 153 413 220 413C253 413 269 392 269 351C269 330 251 252 216 118C199 51 169 18 126 18C112 18 99 21 88 26C114 36 127 54 127 80C127 106 114 119 87 119C54 119 29 91 29 58C29 12 76-11 125-11C167-11 201 12 228 58C247 12 283-11 335-11C383-11 423 12 455 57C482 96 496 125 496 144C496 153 491 158 481 158C472 158 467 153 464 144C447 87 402 18 337 18C304 18 287 38 287 79C287 92 292 120 303 165L337 300C356 375 387 413 431 413C445 413 458 410 469 405C442 396 429 378 429 351C429 325 443 312 470 312C502 312 527 341 527 373Z"/></g><g transform="translate(9379.1,0)"><path data-c="2C" d="M139 106C107 106 86 82 86 50C86 20 109-5 139-5C153-5 165-1 174 8L175 0C175-63 154-117 112-160C105-168 101-174 101-178C101-188 105-193 114-193C123-193 135-181 152-158C186-110 203-57 203 0C203 53 185 106 139 106Z"/></g><g transform="translate(9823.8,0)"><path data-c="1D466" d="M163 442C118 442 83 417 58 367C39 328 29 301 29 286C29 277 34 272 45 272C59 272 60 278 64 293C87 372 119 412 160 412C173 412 180 403 180 385C180 369 175 346 164 317C126 214 107 145 107 108C107 32 154-13 231-13C264-13 295-1 323 23C288-109 233-175 158-175C124-175 101-164 89-142C129-140 149-121 149-85C149-60 136-47 109-47C72-47 50-78 50-115C50-170 100-205 158-205C273-205 367-99 392-1L486 377C489 388 490 396 490 401C490 421 479 431 458 431C442 431 429 423 420 408C414 387 409 369 406 354L342 97C332 61 279 16 234 16C196 16 177 41 177 92C177 134 194 198 227 284C240 319 247 343 247 357C247 406 212 442 163 442Z"/></g><g transform="translate(10313.8,0)"><path data-c="29" d="M78-245C138-199 188-131 229-40C268 47 288 129 288 208L288 292C288 371 268 453 229 540C188 631 138 699 78 745C75 747 72 748 71 748C62 748 57 743 57 734C57 730 59 726 62 723C114 683 156 617 187 526C214 447 228 369 228 292L228 208C228 131 214 53 187-26C156-117 114-183 62-223C59-227 57-231 57-234C57-243 62-248 71-248C72-248 75-247 78-245Z"/></g><g transform="translate(10702.8,0)"><g><path data-c="1D452" d="M124 129C124 153 129 186 139 227L188 227C253 227 303 235 339 250C372 264 394 284 405 309C412 326 415 342 415 355C415 410 363 442 307 442C268 442 229 432 190 412C113 372 46 281 46 171C46 69 105-11 204-11C257-11 304 2 345 27C379 48 404 69 420 90C427 99 430 106 430 109C430 120 425 126 414 126C409 126 404 122 398 114C365 70 324 42 277 30C246 22 223 18 206 18C149 18 124 72 124 129M375 355C375 289 311 256 182 256L147 256C166 322 194 366 232 387C262 404 287 413 307 413C343 413 375 391 375 355Z"/></g><g transform="translate(499,413) scale(0.707)" data-mjx-texclass="ORD"><g><path data-c="2212" d="M698 270L80 270C64 270 56 263 56 250C56 237 64 230 80 230L698 230C714 230 722 237 722 250C722 262 710 270 698 270Z"/></g><g transform="translate(778,0)"><path data-c="32" d="M237 666C186 666 143 648 106 612C69 576 50 534 50 483C50 449 75 424 106 424C136 424 161 450 161 480C161 513 137 536 105 536C102 536 100 536 98 535C117 584 161 627 224 627C306 627 352 556 352 470C352 403 318 331 250 255L62 43C49 28 50 29 50 0L421 0L450 180L417 180C409 129 402 100 396 91C391 86 361 84 306 84L139 84L236 179C304 243 390 312 419 365C439 400 449 435 449 470C449 588 357 666 237 666Z"/></g><g transform="translate(1278,0)"><path data-c="1D70B" d="M524 431L194 431C153 431 117 415 88 384C74 369 27 305 27 292C31 285 31 279 43 279C50 279 56 283 62 292C94 341 135 366 184 366L235 366C212 279 170 172 110 45C105 33 102 24 102 19C102-1 113-11 134-11C153-11 167 0 176 21C194 78 207 122 214 152L269 366L372 366C345 247 331 164 331 117C331 68 342-11 379-11C400-11 423 9 423 30C423 35 421 43 417 53C398 100 389 153 389 214C389 261 395 312 406 366L515 366C550 366 567 378 567 403C567 426 549 431 524 431Z"/></g><g transform="translate(1848,0)"><path data-c="1D456" d="M284 621C284 648 271 661 244 661C216 661 188 633 188 605C188 578 202 565 229 565C257 565 284 593 284 621M259 138C237 59 205 19 164 19C151 19 144 28 144 47C144 64 173 150 232 306C240 329 244 347 244 360C244 409 210 445 161 445C118 445 84 420 59 369C39 328 29 301 29 288C29 279 34 275 45 275C58 275 60 281 64 295C87 375 118 415 158 415C171 415 178 406 178 387C178 373 175 357 168 338C145 275 121 208 101 155C86 115 78 88 78 74C78 25 114-11 162-11C205-11 239 14 264 64C283 103 293 130 293 145C293 154 288 159 277 159C274 159 259 150 259 138Z"/></g><g transform="translate(2193,0)"><g><path data-c="28" d="M348-297C357-297 362-292 362-283C362-278 360-275 357-272C301-229 256-157 222-56C193 31 178 115 178 198L178 302C178 385 193 469 222 556C256 657 301 729 357 772C360 775 362 778 362 783C362 792 357 797 348 797C344 797 341 796 340 794C275 744 221 670 178 571C137 477 116 387 116 302L116 198C116 113 137 23 178-71C221-170 275-244 340-294C341-296 344-297 348-297Z"/></g><g transform="translate(422,0)"><g transform="translate(220,394) scale(0.707)"><g><path data-c="1D462" d="M543 144C543 153 538 158 527 158C518 158 513 151 510 137C505 118 500 99 493 80C480 39 462 18 440 18C422 18 413 32 413 60C413 77 420 111 433 161L460 267C469 303 477 328 483 359L489 386C491 393 492 398 492 401C492 421 481 431 459 431C437 431 423 419 417 394L343 98C342 95 338 88 330 76C314 50 275 18 235 18C197 18 178 44 178 95C178 136 196 202 231 294C242 324 248 345 248 357C248 407 213 442 163 442C118 442 83 417 58 367C39 328 29 301 29 287C29 278 34 273 45 273C58 273 60 279 64 293C87 373 119 413 160 413C174 413 181 403 181 384C181 369 175 348 164 319C126 218 107 148 107 111C107 34 155-11 232-11C275-11 314 9 347 50C361 9 391-11 437-11C506-11 527 70 543 144Z"/></g><g transform="translate(572,0)"><path data-c="1D465" d="M527 373C527 419 482 442 432 442C389 442 355 419 329 373C308 419 273 442 222 442C173 442 133 419 101 374C74 335 60 306 60 287C60 278 65 273 75 273C84 273 90 278 92 287C111 345 153 413 220 413C253 413 269 392 269 351C269 330 251 252 216 118C199 51 169 18 126 18C112 18 99 21 88 26C114 36 127 54 127 80C127 106 114 119 87 119C54 119 29 91 29 58C29 12 76-11 125-11C167-11 201 12 228 58C247 12 283-11 335-11C383-11 423 12 455 57C482 96 496 125 496 144C496 153 491 158 481 158C472 158 467 153 464 144C447 87 402 18 337 18C304 18 287 38 287 79C287 92 292 120 303 165L337 300C356 375 387 413 431 413C445 413 458 410 469 405C442 396 429 378 429 351C429 325 443 312 470 312C502 312 527 341 527 373Z"/></g></g><g transform="translate(255.4,-345) scale(0.707)"><path data-c="1D440" d="M594 16C594 5 600 0 613 0L736 3C759 4 840 0 859 0C874 0 882 8 882 24C882 34 872 39 851 39C810 39 790 43 790 52C790 55 792 62 795 75L927 602C932 623 942 636 955 641C961 643 979 644 1008 644C1033 644 1044 645 1044 668C1044 678 1034 683 1013 683L882 683C853 683 853 681 840 662L484 108L408 657C404 682 402 683 373 683L237 683C215 683 204 682 204 660C204 649 215 644 236 644C256 644 297 647 297 631C297 629 296 623 293 613L167 110C158 72 135 49 100 42C75 39 42 43 42 16C42 5 48 0 60 0C78 0 141 3 159 3C178 3 242 0 261 0C276 0 283 8 283 24C283 33 276 38 261 39C219 39 198 52 198 78C198 82 199 89 202 100L332 621L415 26C418 9 424 0 434 0C442 0 450 7 459 20L848 627L712 82C706 60 696 47 681 42C675 40 656 39 625 39C604 39 594 37 594 16Z"/></g><rect width="1008.9" height="60" x="120" y="220"/></g><g transform="translate(1670.9,0)"><path data-c="2B" d="M698 274L413 274L413 559C413 575 405 583 389 583C373 583 365 575 365 559L365 274L80 274C64 274 56 266 56 250C56 234 64 226 80 226L365 226L365-59C365-75 373-83 389-83C405-83 413-75 413-59L413 226L698 226C714 226 722 234 722 250C722 263 711 274 698 274Z"/></g><g transform="translate(2448.9,0)"><g transform="translate(220,485) scale(0.707)"><g><path data-c="1D463" d="M369 391C369 383 378 370 394 350C410 330 418 307 418 281C418 252 404 203 375 134C354 86 306 18 247 18C201 18 178 45 178 100C178 139 197 208 235 307C243 328 247 345 247 357C247 407 213 442 163 442C119 442 84 417 59 367C39 326 29 300 29 287C29 278 34 273 45 273C58 273 60 279 64 293C87 373 119 413 160 413C173 413 180 404 180 385C180 369 175 347 164 318C127 219 108 152 108 115C108 64 125 29 159 10C186-4 214-11 243-11C332-11 394 85 420 162C452 256 468 325 468 369C468 418 452 442 421 442C396 442 369 416 369 391Z"/></g><g transform="translate(485,0)"><path data-c="1D466" d="M163 442C118 442 83 417 58 367C39 328 29 301 29 286C29 277 34 272 45 272C59 272 60 278 64 293C87 372 119 412 160 412C173 412 180 403 180 385C180 369 175 346 164 317C126 214 107 145 107 108C107 32 154-13 231-13C264-13 295-1 323 23C288-109 233-175 158-175C124-175 101-164 89-142C129-140 149-121 149-85C149-60 136-47 109-47C72-47 50-78 50-115C50-170 100-205 158-205C273-205 367-99 392-1L486 377C489 388 490 396 490 401C490 421 479 431 458 431C442 431 429 423 420 408C414 387 409 369 406 354L342 97C332 61 279 16 234 16C196 16 177 41 177 92C177 134 194 198 227 284C240 319 247 343 247 357C247 406 212 442 163 442Z"/></g></g><g transform="translate(253.2,-345) scale(0.707)"><path data-c="1D441" d="M864 683C845 683 783 680 764 680C745 680 682 683 663 683C648 683 641 675 641 659C641 650 648 645 663 644C705 644 726 631 726 605C726 599 725 592 724 585L616 157L401 662C393 681 391 683 366 683L233 683C209 683 200 681 200 659C200 649 211 644 232 644C274 644 295 643 296 640L163 110C154 71 131 49 95 42C69 39 39 43 39 15C39 5 45 0 56 0C74 0 136 3 155 3C174 3 238 0 257 0C272 0 279 8 279 24C279 33 271 38 255 39C214 40 194 53 194 78C194 83 195 90 197 100L326 611L576 21C582 7 590 0 599 0C608 0 614 8 618 24L757 574C770 625 798 643 860 644C874 645 881 653 881 669C878 678 877 683 864 683Z"/></g><rect width="889.4" height="60" x="120" y="220"/></g><g transform="translate(3578.4,0)"><path data-c="29" d="M82-294C147-244 201-170 244-71C285 23 306 113 306 198L306 302C306 387 285 477 244 571C201 670 147 744 82 794C81 796 78 797 74 797C65 797 60 792 60 783C60 778 62 775 65 772C121 729 166 657 200 556C229 469 244 385 244 302L244 198C244 115 229 31 200-56C166-157 121-229 65-272C62-275 60-278 60-283C60-292 65-297 74-297C78-297 81-296 82-294Z"/></g></g></g></g></g></g></svg>
